<?xml version="1.0" encoding="utf-8"?>
<!-- Generator: Adobe Illustrator 15.1.0, SVG Export Plug-In . SVG Version: 6.00 Build 0)  -->
<!DOCTYPE svg PUBLIC "-//W3C//DTD SVG 1.1//EN" "http://www.w3.org/Graphics/SVG/1.1/DTD/svg11.dtd">
<svg version="1.1" id="Layer_1" xmlns="http://www.w3.org/2000/svg" xmlns:xlink="http://www.w3.org/1999/xlink" x="0px" y="0px"
	 width="28.35px" height="28.35px" viewBox="0 0 28.35 28.35" enable-background="new 0 0 28.35 28.35" xml:space="preserve">
<symbol  id="leaf" viewBox="-5 -0.938 10 13.17">
	<path fill="#FFFFFF" d="M4.614,5.618c-0.023-3.636-2.104-6.571-4.65-6.556c-2.545,0.016-4.591,2.977-4.567,6.612
		c0.021,3.638,2.104,6.573,4.648,6.557C2.591,12.216,4.636,9.255,4.614,5.618z"/>
	<polygon display="none" fill="none" points="-5,12 5,12 5,0 -5,0 	"/>
</symbol>
<g display="none" opacity="0.9">
	
		<use xlink:href="#leaf"  width="10" height="13.17" x="-5" y="-0.938" transform="matrix(0.8806 0 0 -0.8806 14.0913 11.0312)" display="inline" overflow="visible"/>
	
		<use xlink:href="#leaf"  width="10" height="13.17" x="-5" y="-0.938" transform="matrix(0.7626 0.4403 0.4403 -0.7626 15.6807 11.4346)" display="inline" overflow="visible" opacity="0.92"/>
	
		<use xlink:href="#leaf"  width="10" height="13.17" x="-5" y="-0.938" transform="matrix(0.4403 0.7626 0.7626 -0.4403 16.8555 12.5786)" display="inline" overflow="visible" opacity="0.84"/>
	
		<use xlink:href="#leaf"  width="10" height="13.17" x="-5" y="-0.938" transform="matrix(0 0.8806 0.8806 0 17.3008 14.1562)" display="inline" overflow="visible" opacity="0.76"/>
	
		<use xlink:href="#leaf"  width="10" height="13.17" x="-5" y="-0.938" transform="matrix(-0.4403 0.7626 0.7626 0.4403 16.8984 15.7461)" display="inline" overflow="visible" opacity="0.68"/>
	
		<use xlink:href="#leaf"  width="10" height="13.17" x="-5" y="-0.938" transform="matrix(-0.7626 0.4403 0.4403 0.7626 15.7549 16.9209)" display="inline" overflow="visible" opacity="0.6"/>
	
		<use xlink:href="#leaf"  width="10" height="13.17" x="-5" y="-0.938" transform="matrix(-0.8806 0 0 0.8806 14.1768 17.3672)" display="inline" overflow="visible" opacity="0.52"/>
	
		<use xlink:href="#leaf"  width="10" height="13.17" x="-5" y="-0.938" transform="matrix(-0.7626 -0.4403 -0.4403 0.7626 12.5874 16.9639)" display="inline" overflow="visible" opacity="0.44"/>
	
		<use xlink:href="#leaf"  width="10" height="13.17" x="-5" y="-0.938" transform="matrix(-0.4403 -0.7626 -0.7626 0.4403 11.4121 15.8203)" display="inline" overflow="visible" opacity="0.36"/>
	
		<use xlink:href="#leaf"  width="10" height="13.17" x="-5" y="-0.938" transform="matrix(0 -0.8806 -0.8806 0 10.9663 14.2427)" display="inline" overflow="visible" opacity="0.28"/>
	
		<use xlink:href="#leaf"  width="10" height="13.17" x="-5" y="-0.938" transform="matrix(0.4403 -0.7626 -0.7626 -0.4403 11.3691 12.6523)" display="inline" overflow="visible" opacity="0.2"/>
	
		<use xlink:href="#leaf"  width="10" height="13.17" x="-5" y="-0.938" transform="matrix(0.7626 -0.4403 -0.4403 -0.7626 12.5137 11.4775)" display="inline" overflow="visible" opacity="0.12"/>
</g>
<g display="none" opacity="0.8">
	
		<use xlink:href="#leaf"  width="10" height="13.17" x="-5" y="-0.938" transform="matrix(0.8806 0 0 -0.8806 14.0913 11.0312)" display="inline" overflow="visible"/>
	
		<use xlink:href="#leaf"  width="10" height="13.17" x="-5" y="-0.938" transform="matrix(0.7626 0.4403 0.4403 -0.7626 15.6807 11.4346)" display="inline" overflow="visible" opacity="0.92"/>
	
		<use xlink:href="#leaf"  width="10" height="13.17" x="-5" y="-0.938" transform="matrix(0.4403 0.7626 0.7626 -0.4403 16.8555 12.5786)" display="inline" overflow="visible" opacity="0.84"/>
	
		<use xlink:href="#leaf"  width="10" height="13.17" x="-5" y="-0.938" transform="matrix(0 0.8806 0.8806 0 17.3008 14.1562)" display="inline" overflow="visible" opacity="0.76"/>
	
		<use xlink:href="#leaf"  width="10" height="13.17" x="-5" y="-0.938" transform="matrix(-0.4403 0.7626 0.7626 0.4403 16.8984 15.7461)" display="inline" overflow="visible" opacity="0.68"/>
	
		<use xlink:href="#leaf"  width="10" height="13.17" x="-5" y="-0.938" transform="matrix(-0.7626 0.4403 0.4403 0.7626 15.7549 16.9209)" display="inline" overflow="visible" opacity="0.6"/>
	
		<use xlink:href="#leaf"  width="10" height="13.17" x="-5" y="-0.938" transform="matrix(-0.8806 0 0 0.8806 14.1768 17.3672)" display="inline" overflow="visible" opacity="0.52"/>
	
		<use xlink:href="#leaf"  width="10" height="13.17" x="-5" y="-0.938" transform="matrix(-0.7626 -0.4403 -0.4403 0.7626 12.5874 16.9639)" display="inline" overflow="visible" opacity="0.44"/>
	
		<use xlink:href="#leaf"  width="10" height="13.17" x="-5" y="-0.938" transform="matrix(-0.4403 -0.7626 -0.7626 0.4403 11.4121 15.8203)" display="inline" overflow="visible" opacity="0.36"/>
	
		<use xlink:href="#leaf"  width="10" height="13.17" x="-5" y="-0.938" transform="matrix(0 -0.8806 -0.8806 0 10.9663 14.2427)" display="inline" overflow="visible" opacity="0.28"/>
	
		<use xlink:href="#leaf"  width="10" height="13.17" x="-5" y="-0.938" transform="matrix(0.4403 -0.7626 -0.7626 -0.4403 11.3691 12.6523)" display="inline" overflow="visible" opacity="0.2"/>
	
		<use xlink:href="#leaf"  width="10" height="13.17" x="-5" y="-0.938" transform="matrix(0.7626 -0.4403 -0.4403 -0.7626 12.5137 11.4775)" display="inline" overflow="visible" opacity="0.12"/>
</g>
<g opacity="0.8">
	
		<use xlink:href="#leaf"  width="10" height="13.17" x="-5" y="-0.938" transform="matrix(0.8806 0 0 -0.8806 14.0913 11.0312)" overflow="visible"/>
	
		<use xlink:href="#leaf"  width="10" height="13.17" x="-5" y="-0.938" transform="matrix(0.7626 0.4403 0.4403 -0.7626 15.6807 11.4346)" overflow="visible" opacity="0.9"/>
	
		<use xlink:href="#leaf"  width="10" height="13.17" x="-5" y="-0.938" transform="matrix(0.4403 0.7626 0.7626 -0.4403 16.8555 12.5786)" overflow="visible" opacity="0.8"/>
	
		<use xlink:href="#leaf"  width="10" height="13.17" x="-5" y="-0.938" transform="matrix(0 0.8806 0.8806 0 17.3008 14.1562)" overflow="visible" opacity="0.7"/>
	
		<use xlink:href="#leaf"  width="10" height="13.17" x="-5" y="-0.938" transform="matrix(-0.4403 0.7626 0.7626 0.4403 16.8984 15.7461)" overflow="visible" opacity="0.6"/>
	
		<use xlink:href="#leaf"  width="10" height="13.17" x="-5" y="-0.938" transform="matrix(-0.7626 0.4403 0.4403 0.7626 15.7549 16.9209)" overflow="visible" opacity="0.5"/>
	
		<use xlink:href="#leaf"  width="10" height="13.17" x="-5" y="-0.938" transform="matrix(-0.8806 0 0 0.8806 14.1768 17.3672)" overflow="visible" opacity="0.4"/>
	
		<use xlink:href="#leaf"  width="10" height="13.17" x="-5" y="-0.938" transform="matrix(-0.7626 -0.4403 -0.4403 0.7626 12.5874 16.9639)" overflow="visible" opacity="0.5"/>
	
		<use xlink:href="#leaf"  width="10" height="13.17" x="-5" y="-0.938" transform="matrix(-0.4403 -0.7626 -0.7626 0.4403 11.4121 15.8203)" overflow="visible" opacity="0.6"/>
	
		<use xlink:href="#leaf"  width="10" height="13.17" x="-5" y="-0.938" transform="matrix(0 -0.8806 -0.8806 0 10.9663 14.2427)" overflow="visible" opacity="0.7"/>
	
		<use xlink:href="#leaf"  width="10" height="13.17" x="-5" y="-0.938" transform="matrix(0.4403 -0.7626 -0.7626 -0.4403 11.3691 12.6523)" overflow="visible" opacity="0.8"/>
	
		<use xlink:href="#leaf"  width="10" height="13.17" x="-5" y="-0.938" transform="matrix(0.7626 -0.4403 -0.4403 -0.7626 12.5137 11.4775)" overflow="visible" opacity="0.9"/>
</g>
</svg>
